<?xml version="1.0" encoding="UTF-8"?>
<svg width="34px" height="34px" viewBox="0 0 34 34" version="1.1" xmlns="http://www.w3.org/2000/svg" xmlns:xlink="http://www.w3.org/1999/xlink">
    <!-- Generator: Sketch 52.2 (67145) - http://www.bohemiancoding.com/sketch -->
    <title>icn_parking</title>
    <desc>Created with Sketch.</desc>
    <g id="Home" stroke="none" stroke-width="1" fill="none" fill-rule="evenodd">
        <g id="БА_Главная" transform="translate(-1072.000000, -7498.000000)">
            <g id="genplan" transform="translate(0.000000, 6671.000000)">
                <g id="icn_parking" transform="translate(1072.000000, 827.000000)">
                    <rect id="Rectangle" fill="#1C70D3" fill-rule="nonzero" x="0" y="0" width="34" height="34" rx="7"></rect>
                    <rect id="Rectangle" stroke="#FFFFFF" fill-rule="nonzero" x="2.44285714" y="2.44285714" width="29.1142857" height="29.1142857" rx="6"></rect>
                    <path d="M18.2137143,7.81904762 C19.8257223,7.81904762 21.225375,8.0877116 22.4127143,8.62504762 C23.6000536,9.16238364 24.5143777,9.92504268 25.1557143,10.9130476 C25.7970508,11.9010526 26.1177143,13.0710409 26.1177143,14.4230476 C26.1177143,15.757721 25.7970508,16.923376 25.1557143,17.9200476 C24.5143777,18.9167193 23.6000536,19.6793783 22.4127143,20.2080476 C21.225375,20.7367169 19.8257223,21.0010476 18.2137143,21.0010476 L14.5477143,21.0010476 L14.5477143,26.0190476 L10.3357143,26.0190476 L10.3357143,7.81904762 L18.2137143,7.81904762 Z M17.9797143,17.5690476 C19.2450539,17.5690476 20.2070443,17.2960503 20.8657143,16.7500476 C21.5243842,16.2040449 21.8537143,15.428386 21.8537143,14.4230476 C21.8537143,13.4003758 21.5243842,12.6160503 20.8657143,12.0700476 C20.2070443,11.5240449 19.2450539,11.2510476 17.9797143,11.2510476 L14.5477143,11.2510476 L14.5477143,17.5690476 L17.9797143,17.5690476 Z" id="Р" fill="#FFFFFF"></path>
                </g>
            </g>
        </g>
    </g>
</svg>