<?xml version="1.0" encoding="UTF-8"?>
<svg width="47px" height="45px" viewBox="0 0 47 45" version="1.1" xmlns="http://www.w3.org/2000/svg" xmlns:xlink="http://www.w3.org/1999/xlink">
    <!-- Generator: Sketch 52.2 (67145) - http://www.bohemiancoding.com/sketch -->
    <title>icn_time</title>
    <desc>Created with Sketch.</desc>
    <defs>
        <polygon id="path-1" points="0.000155172414 0 46.5517241 0 46.5517241 44.9993793 0.000155172414 44.9993793"></polygon>
    </defs>
    <g id="Home" stroke="none" stroke-width="1" fill="none" fill-rule="evenodd">
        <g id="БА_Главная" transform="translate(-638.000000, -858.000000)">
            <g id="icon" transform="translate(0.000000, 828.000000)">
                <g id="time" transform="translate(638.000000, 22.000000)">
                    <g id="icn_time" transform="translate(-0.000000, 8.000000)">
                        <g id="Group-3">
                            <mask id="mask-2" fill="white">
                                <use xlink:href="#path-1"></use>
                            </mask>
                            <g id="Clip-2"></g>
                            <path d="M23.2760172,38.7536897 L23.2760172,36.4648966 C23.2760172,36.0366207 22.928431,35.6890345 22.5001552,35.6890345 C22.0718793,35.6890345 21.7242931,36.0366207 21.7242931,36.4648966 L21.7242931,38.7536897 C13.3605,38.3564483 6.64308621,31.6390345 6.24584483,23.2752414 L8.53463793,23.2752414 C8.96291379,23.2752414 9.3105,22.9292069 9.3105,22.4993793 C9.3105,22.0711034 8.96291379,21.7235172 8.53463793,21.7235172 L6.24584483,21.7235172 C6.64308621,13.3612759 13.3605,6.64386207 21.7242931,6.24662069 L21.7242931,8.53386207 C21.7242931,8.96368966 22.0718793,9.30972414 22.5001552,9.30972414 C22.928431,9.30972414 23.2760172,8.96368966 23.2760172,8.53386207 L23.2760172,6.24662069 C31.6398103,6.64386207 38.3572241,13.3612759 38.7544655,21.7235172 L36.4656724,21.7235172 C36.0373966,21.7235172 35.6898103,22.0711034 35.6898103,22.4993793 C35.6898103,22.9292069 36.0373966,23.2752414 36.4656724,23.2752414 L38.7544655,23.2752414 C38.3572241,31.6390345 31.6398103,38.3564483 23.2760172,38.7536897 M44.0861897,17.7867931 C43.4639483,14.850931 42.2877414,12.1198966 40.5870517,9.66041379 L39.6994655,0.700758621 C39.6622241,0.301965517 39.3270517,-0.000620689655 38.9282586,-0.000620689655 L34.0372241,-0.000620689655 C33.6803276,-0.000620689655 33.3699828,0.243 33.2830862,0.589034483 L32.7710172,2.65903448 C26.3096379,-0.824586207 18.2856724,-0.826137931 11.8242931,2.65903448 L11.3122241,0.589034483 C11.2253276,0.243 10.9149828,-0.000620689655 10.5596379,-0.000620689655 L5.66705172,-0.000620689655 C5.26981034,-0.000620689655 4.93463793,0.301965517 4.8942931,0.700758621 L4.00825862,9.66041379 C1.38584483,13.4528276 0.000155172414,17.8892069 0.000155172414,22.4993793 C0.000155172414,27.1111034 1.38584483,31.545931 4.00825862,35.3398966 L4.8942931,44.2995517 C4.93463793,44.6983448 5.26981034,44.9993793 5.66705172,44.9993793 L10.5596379,44.9993793 C10.9149828,44.9993793 11.2253276,44.7573103 11.3122241,44.4112759 L11.8242931,42.3412759 C18.2872241,45.828 26.3111897,45.8264483 32.7710172,42.3412759 L33.2830862,44.4112759 C33.3699828,44.7573103 33.6803276,44.9993793 34.0372241,44.9993793 L38.9282586,44.9993793 C39.3270517,44.9993793 39.6622241,44.6983448 39.6994655,44.2995517 L40.5870517,35.3398966 C41.8796379,33.4685172 42.8805,31.4062759 43.5632586,29.2012759 L43.8192931,29.2012759 C45.3260172,29.2012759 46.5518793,27.9661034 46.5518793,26.4485172 L46.5518793,20.5255862 C46.5518793,19.098 45.4687759,17.9233448 44.0861897,17.7867931" id="Fill-1" fill="#788796" mask="url(#mask-2)"></path>
                        </g>
                        <path d="M24.6004138,23.5031897 L24.5942069,23.4985345 C24.7385172,23.1959483 24.8269655,22.8592241 24.8269655,22.5007759 C24.8269655,21.4890517 24.1767931,20.6356034 23.2752414,20.3143966 L23.2752414,11.6387069 C23.2752414,11.2088793 22.9292069,10.8628448 22.4993793,10.8628448 C22.0711034,10.8628448 21.7235172,11.2088793 21.7235172,11.6387069 L21.7235172,20.3143966 C20.8235172,20.6356034 20.1717931,21.4890517 20.1717931,22.5007759 C20.1717931,23.7840517 21.2161034,24.8283621 22.4993793,24.8283621 C22.8593793,24.8283621 23.1945517,24.7399138 23.4986897,24.5940517 C23.5017931,24.5956034 23.5017931,24.5987069 23.5033448,24.6002586 L28.1585172,29.255431 C28.3105862,29.4075 28.5092069,29.4835345 28.7062759,29.4835345 C28.9048966,29.4835345 29.1035172,29.4075 29.2555862,29.255431 C29.5581724,28.9528448 29.5581724,28.4609483 29.2555862,28.1583621 L24.6004138,23.5031897 Z" id="Fill-4" fill="#788796"></path>
                    </g>
                </g>
            </g>
        </g>
    </g>
</svg>