<?xml version="1.0" encoding="UTF-8"?>
<svg width="75px" height="75px" viewBox="0 0 75 75" version="1.1" xmlns="http://www.w3.org/2000/svg" xmlns:xlink="http://www.w3.org/1999/xlink">
    <!-- Generator: Sketch 52.2 (67145) - http://www.bohemiancoding.com/sketch -->
    <title>icn_rassrochka</title>
    <desc>Created with Sketch.</desc>
    <defs>
        <polygon id="path-1" points="0 0 74.1666667 0 74.1666667 75 0 75"></polygon>
        <polygon id="path-3" points="0 0 74.1666667 0 74.1666667 75 0 75"></polygon>
        <polygon id="path-5" points="0 0 74.1666667 0 74.1666667 75 0 75"></polygon>
    </defs>
    <g id="Home" stroke="none" stroke-width="1" fill="none" fill-rule="evenodd">
        <g id="БА_Варианты-оплаты" transform="translate(-158.000000, -422.000000)">
            <g id="icn_rassrochka" transform="translate(158.000000, 422.000000)">
                <path d="M11.209716,57.4453441 C12.2307376,56.7611912 13.3259016,56.400456 14.3799746,56.400456 C15.6269966,56.400456 16.7364531,56.9477784 17.3483514,57.8634907 L17.3510313,57.8673182 C17.869135,58.7007408 17.9584632,59.7877306 17.6038301,60.9283045 C17.233118,62.1195917 16.3675275,63.2917419 15.2884426,64.0639257 C14.302259,64.7672157 13.1579645,65.147088 12.0869191,65.147088 C11.7760569,65.147088 11.4705544,65.1155118 11.1775578,65.0494886 C10.282489,64.8495054 9.58036921,64.3624651 9.14623404,63.639081 C8.0528566,61.816268 8.97829699,59.0375546 11.209716,57.4453441 M7.4650769,65.013128 C8.3744382,66.5957699 10.0689946,67.5 12.1172907,67.5 C13.6492697,67.5 15.1892883,66.9794697 16.5694093,65.9939067 C17.9656095,64.9959046 19.1483151,63.3529807 19.733415,61.5990614 C20.233653,59.7217075 20.0237317,57.9065493 19.1554614,56.628188 C17.2983276,53.7690986 13.3830716,53.3471246 10.0466625,55.6435819 C6.91660161,57.8797573 5.73478923,62.1703052 7.4650769,65.013128" id="Fill-1" fill="#BAA184" fill-rule="nonzero"></path>
                <path d="M21.25,41.6666667 C20.1011455,41.6666667 19.1666667,42.6013312 19.1666667,43.7504139 C19.1666667,44.8994967 20.1011455,45.8333333 21.25,45.8333333 C22.3988545,45.8333333 23.3333333,44.8994967 23.3333333,43.7504139 C23.3333333,42.6013312 22.3988545,41.6666667 21.25,41.6666667" id="Fill-3" fill="#BAA184"></path>
                <path d="M17.3169243,27.9092923 C16.8856244,28.636495 16.1880901,29.127718 15.2997544,29.3290231 C15.0077839,29.3945195 14.705164,29.4272677 14.396332,29.4272677 C13.3322815,29.4272677 12.1954603,29.0448843 11.2157174,28.3359821 C9.94489146,27.4652652 9.05389339,26.1794168 8.77523463,24.8107347 C8.57378387,23.8282887 8.71311325,22.8660695 9.16571187,22.1013027 C9.77627629,21.1727949 10.8784871,20.6228178 12.1173648,20.6228178 C13.1645538,20.6228178 14.2525654,20.9859375 15.2642564,21.6717234 C16.3389563,22.4499747 17.1997811,23.6298731 17.5680722,24.8309615 C17.9266013,25.8654193 17.8280945,27.0761396 17.3169243,27.9092923 M19.6837489,24.2829107 C19.2400247,22.5983048 18.1529006,21.0716608 16.5386322,19.8590142 C15.1852735,18.8621204 13.6384512,18.3333333 12.1457632,18.3333333 C11.7100261,18.3333333 11.2778388,18.3786029 10.8571883,18.4701052 C9.42218443,18.7831395 8.22856649,19.6268872 7.49553421,20.8462761 C6.73499104,22.1118977 6.48650552,23.677069 6.79711242,25.2537986 C7.17871518,27.184016 8.36700842,28.9678297 10.0593723,30.1486913 C11.4136184,31.1282477 12.9418043,31.6666667 14.3652713,31.6666667 C16.4454501,31.6666667 18.1298269,30.8219557 19.1077949,29.2895326 L19.1095698,29.2866431 C20.042278,27.8948446 20.2570405,26.0243444 19.6837489,24.2829107" id="Fill-5" fill="#BAA184" fill-rule="nonzero"></path>
                <path d="M54.167149,14.5737275 C52.6681618,14.5737275 51.449873,13.4569628 51.449873,12.0837754 C51.449873,10.7097039 52.6681618,9.59293913 54.167149,9.59293913 C55.6651715,9.59293913 56.8834603,10.7097039 56.8834603,12.0837754 C56.8834603,13.4569628 55.6651715,14.5737275 54.167149,14.5737275 M54.167149,7.5 C51.4103244,7.5 49.1666667,9.55580206 49.1666667,12.0837754 C49.1666667,14.6108646 51.4103244,16.6666667 54.167149,16.6666667 C56.9230089,16.6666667 59.1666667,14.6108646 59.1666667,12.0837754 C59.1666667,9.55580206 56.9230089,7.5 54.167149,7.5" id="Fill-7" fill="#BAA184" fill-rule="nonzero"></path>
                <mask id="mask-2" fill="white">
                    <use xlink:href="#path-1"></use>
                </mask>
                <g id="path-1"></g>
                <path d="M71.9533081,72.8951437 L34.269172,72.8951437 L34.269172,57.5578765 L40.9597426,61.2614056 L39.8338939,63.2795415 L41.596539,64.3899404 L42.8383388,62.3859437 L42.95429,62.4490989 L50.9334149,66.8482769 C51.9564036,67.4204434 53.1505138,67.7107684 54.4820823,67.7107684 C56.9236029,67.7107684 59.3249146,66.5013951 60.6013128,64.6293643 L61.5195714,63.241837 L48.0580125,54.1946309 L48.1290793,54.0786894 L63.8909602,28.1822638 L62.1329906,27.0746927 L46.1719355,52.8429229 L34.144805,44.8014856 L34.144805,24.7436091 C34.144805,24.473079 34.2747825,24.050788 34.5599851,23.7632909 L50.2582798,3.54139959 C51.0886399,2.70341603 52.1247199,2.23022397 53.1121751,2.23022397 C54.1697622,2.23022397 55.3152477,2.7562024 55.9613951,3.53762914 L71.5493491,23.7774301 C71.8289411,24.0564437 71.9533081,24.3495966 71.9533081,24.7436091 L71.9533081,72.8951437 Z M18.0762146,45.949589 L17.0766031,40.7897217 L16.7521268,40.5710354 C15.6337589,39.6463313 14.2890992,38.5274489 12.9556605,37.4189352 C10.1634811,35.0963351 7.27592246,32.6954981 7.02718846,32.5277128 L7.02625337,32.5267702 C2.40971292,29.3831536 0.826605171,23.4880477 3.49628777,19.3867355 C4.68385235,17.5637207 6.57741006,16.3091019 8.82910732,15.8538195 C11.4810232,15.3184149 14.3788678,15.9509087 16.7829848,17.5882286 C19.1029436,19.1463691 20.7178445,21.3633964 21.3293935,23.8292738 C21.9530986,26.3441671 21.5930889,28.7940201 20.3129504,30.7282633 C19.3563531,32.1073071 18.1940359,33.0687731 16.7586724,33.6720458 L14.8819464,34.4506447 L58.437514,63.8045773 L58.3262382,63.9261745 C57.3350426,65.008295 55.9034195,65.5861172 54.4792771,65.5861172 C53.6339555,65.5861172 52.7914392,65.38157 52.0452372,64.9592791 L18.0762146,45.949589 Z M14.9838712,53.2388206 L16.7614777,54.0230752 C18.1940359,54.6254053 19.3563531,55.5878139 20.3110802,56.9630872 C21.5930889,58.8992157 21.9530986,61.3500113 21.3293935,63.8649046 C20.7178445,66.3298394 19.1029436,68.5468668 16.7829848,70.1068924 C14.8651147,71.359626 12.7349792,71.9657266 10.7058334,71.9657266 C7.77526064,71.9657266 5.05601826,70.7035669 3.49628777,68.3065003 C0.827540261,64.2051881 2.41064801,58.3110248 7.02625337,55.1664656 C7.18521871,55.0599502 8.32228842,54.1201644 9.76232737,52.9315285 C11.6399885,51.380929 14.2114867,49.2572204 16.2434377,47.6321544 L16.3163748,47.574655 L19.8304438,49.4815625 L14.9838712,53.2388206 Z M31.9314464,32.3919765 L31.9314464,40.1430888 L29.8050513,41.8859814 L23.9354899,37.9411432 L31.9314464,32.3919765 Z M73.3241504,22.3163789 L57.6136995,2.081291 C56.5570475,0.778598899 54.87295,0 53.1121751,0 C51.3644915,0 49.6757186,0.761631853 48.477868,2.08977453 L32.8992648,22.1910112 C32.3157685,22.7801448 31.9314464,23.7500943 31.9314464,24.6172988 L31.9314464,29.7206093 L21.8147053,36.4772642 L19.459213,34.801297 L19.6135029,34.6844129 C20.6636092,33.8907322 21.5098659,32.9971345 22.1990274,31.9546037 C23.8419809,29.5886434 24.3216822,26.5044114 23.5502327,23.2684187 C22.8339536,20.2548827 20.9562925,17.6334741 18.122034,15.6850916 C12.535805,11.8901289 5.18319053,12.943971 1.73457778,18.0359701 C0.208510531,20.3717668 -0.302048732,23.2580499 0.297344103,26.1613001 C0.964063434,29.3906945 2.97357233,32.3118543 5.80970098,34.1763442 C6.09583859,34.3686374 9.00583938,36.8015233 12.0869617,39.3776864 C13.1080802,40.2316944 14.1310689,41.086645 15.0493275,41.8520474 L15.0867311,41.8840962 L15.4775988,43.7221929 L15.085796,45.4330367 L15.0493275,45.4632004 C14.1413549,46.2201191 13.1323925,47.064701 12.1243653,47.9073976 C9.02454118,50.4995852 6.09770877,52.947553 5.81063607,53.1398462 C2.86790713,55.1381872 0.82192972,58.1668049 0.199159629,61.4461579 C-0.333841799,64.249491 0.211315802,67.0320866 1.73457778,69.2802202 C3.63748639,72.2777317 6.95799178,73.9942312 10.8451618,73.9942312 C13.3904774,73.9942312 15.9750668,73.1996079 18.1239042,71.7564663 C20.9562925,69.8099691 22.8339536,67.1866752 23.5502327,64.1740819 C24.3216822,60.9371465 23.8419809,57.8538572 22.2008976,55.4907247 C21.5098659,54.5622502 20.5570089,53.6856195 19.3713145,52.8881683 L19.2114141,52.7807104 L21.9269161,50.5900762 L22.0092041,50.6353216 L32.0558134,56.2061685 L32.0558134,75 L74.1666667,75 L74.1666667,24.7436091 C74.1666667,23.8632079 73.8674378,23.001659 73.3250855,22.3182641 L73.3241504,22.3163789 Z" id="Fill-9" fill="#BAA184" fill-rule="nonzero" mask="url(#mask-2)"></path>
                <mask id="mask-4" fill="white">
                    <use xlink:href="#path-3"></use>
                </mask>
                <g id="path-1"></g>
                <path d="M45.4171088,37.0737275 C44.0430372,37.0737275 42.9262725,35.9569628 42.9262725,34.5837754 C42.9262725,33.2097039 44.0430372,32.0929391 45.4171088,32.0929391 C46.7902961,32.0929391 47.9070609,33.2097039 47.9070609,34.5837754 C47.9070609,35.9569628 46.7902961,37.0737275 45.4171088,37.0737275 M45.4171088,30 C42.8900196,30 40.8333333,32.0558021 40.8333333,34.5837754 C40.8333333,37.1108646 42.8900196,39.1666667 45.4171088,39.1666667 C47.9433137,39.1666667 50,37.1108646 50,34.5837754 C50,32.0558021 47.9433137,30 45.4171088,30" id="Fill-12" fill="#BAA184" fill-rule="nonzero" mask="url(#mask-4)"></path>
                <mask id="mask-6" fill="white">
                    <use xlink:href="#path-5"></use>
                </mask>
                <g id="path-1"></g>
                <path d="M60.4171088,57.9077433 C59.0430372,57.9077433 57.9262725,56.7899865 57.9262725,55.417551 C57.9262725,54.0433468 59.0430372,52.9255901 60.4171088,52.9255901 C61.7902961,52.9255901 62.9070609,54.0433468 62.9070609,55.417551 C62.9070609,56.7899865 61.7902961,57.9077433 60.4171088,57.9077433 M60.4171088,50.8333333 C57.8900196,50.8333333 55.8333333,52.8893337 55.8333333,55.417551 C55.8333333,57.9448839 57.8900196,60 60.4171088,60 C62.9433137,60 65,57.9448839 65,55.417551 C65,52.8893337 62.9433137,50.8333333 60.4171088,50.8333333" id="Fill-14" fill="#BAA184" fill-rule="nonzero" mask="url(#mask-6)"></path>
            </g>
        </g>
    </g>
</svg>