<?xml version="1.0" encoding="UTF-8"?>
<svg width="39px" height="45px" viewBox="0 0 39 45" version="1.1" xmlns="http://www.w3.org/2000/svg" xmlns:xlink="http://www.w3.org/1999/xlink">
    <!-- Generator: Sketch 52.2 (67145) - http://www.bohemiancoding.com/sketch -->
    <title>icn_key</title>
    <desc>Created with Sketch.</desc>
    <defs>
        <polygon id="path-1" points="0 0 22.4997 0 22.4997 43.5 0 43.5"></polygon>
    </defs>
    <g id="Home" stroke="none" stroke-width="1" fill="none" fill-rule="evenodd">
        <g id="БА_Главная" transform="translate(-968.000000, -858.000000)">
            <g id="icon" transform="translate(0.000000, 828.000000)">
                <g id="price" transform="translate(968.000000, 22.000000)">
                    <g id="icn_key" transform="translate(0.000000, 8.000000)">
                        <path d="M12.75045,9 C12.72495,9 12.70095,8.9985 12.67545,8.997 C12.26295,8.955 11.96295,8.5875 12.00345,8.175 C12.01095,8.094 12.91395,0 21.00045,0 C28.81245,0 29.97945,6.5625 29.98995,6.6285 C30.05745,7.0365 29.78145,7.4205 29.37345,7.488 C28.96395,7.5615 28.57995,7.281 28.50945,6.8745 C28.47195,6.6555 27.51195,1.5 21.00045,1.5 C14.25645,1.5 13.52445,8.046 13.49595,8.325 C13.45695,8.712 13.13145,9 12.75045,9" id="Fill-1" fill="#788796"></path>
                        <path d="M35.9997,27.75 C35.9997,28.164 35.6637,28.5 35.2497,28.5 C34.8357,28.5 34.4997,28.164 34.4997,27.75 L34.4997,25.5 L30.7497,25.5 C30.4722,25.5 30.2187,25.347 30.0882,25.104 C29.9577,24.8595 29.9727,24.564 30.1257,24.3345 L33.1257,19.8345 C33.3537,19.4895 33.8187,19.395 34.1652,19.626 C34.5102,19.8555 34.6032,20.3205 34.3737,20.6655 L32.1507,24 L35.2497,24 C35.6637,24 35.9997,24.336 35.9997,24.75 L35.9997,27.75 Z M25.4997,22.5 C27.1542,22.5 28.4997,23.8455 28.4997,25.5 C28.4997,27.1545 27.1542,28.5 25.4997,28.5 L23.2497,28.5 C22.8357,28.5 22.4997,28.164 22.4997,27.75 C22.4997,27.336 22.8357,27 23.2497,27 L25.4997,27 C26.3262,27 26.9997,26.3265 26.9997,25.5 C26.9997,24.6735 26.3262,24 25.4997,24 L23.2497,24 C22.8357,24 22.4997,23.664 22.4997,23.25 L22.4997,20.25 C22.4997,19.836 22.8357,19.5 23.2497,19.5 L27.7497,19.5 C28.1637,19.5 28.4997,19.836 28.4997,20.25 C28.4997,20.664 28.1637,21 27.7497,21 L23.9997,21 L23.9997,22.5 L25.4997,22.5 Z M29.2497,1.5 C27.7992,1.5 26.4117,1.839 25.1532,2.427 C27.1827,3.4965 28.0182,5.229 28.3347,6.1995 C28.6152,6.0735 28.9242,6 29.2497,6 C30.4902,6 31.4997,7.0095 31.4997,8.25 C31.4997,9.4905 30.4902,10.5 29.2497,10.5 C28.0092,10.5 26.9997,9.4905 26.9997,8.25 C26.9997,7.9575 27.0597,7.68 27.1617,7.4235 C27.1002,7.3365 27.0522,7.239 27.0312,7.1265 C26.9697,6.786 26.4237,4.317 23.5287,3.3705 C21.9522,4.5165 20.7132,6.1305 20.0427,8.061 C19.9797,8.2455 19.9902,8.4465 20.0727,8.625 C20.6877,9.936 20.9997,11.3235 20.9997,12.75 C20.9997,14.5035 20.5182,16.233 19.6062,17.751 C19.5357,17.868 19.4997,18.0015 19.4997,18.138 L19.4997,29.25 C19.4997,34.626 23.8737,39 29.2497,39 C34.6257,39 38.9997,34.626 38.9997,29.25 L38.9997,11.25 C38.9997,5.874 34.6257,1.5 29.2497,1.5 Z" id="Fill-3" fill="#788796"></path>
                        <g id="Group-7" transform="translate(0.000000, 1.500000)">
                            <mask id="mask-2" fill="white">
                                <use xlink:href="#path-1"></use>
                            </mask>
                            <g id="Clip-6"></g>
                            <path d="M13.4997,38.25 C13.4997,38.664 13.1637,39 12.7497,39 C12.3357,39 11.9997,38.664 11.9997,38.25 L11.9997,26.25 C11.9997,25.836 12.3357,25.5 12.7497,25.5 C13.1637,25.5 13.4997,25.836 13.4997,26.25 L13.4997,38.25 Z M17.9532,2.2365 C15.3612,3.687 15.0057,6.8025 14.9892,6.9735 C14.9772,7.0965 14.9277,7.2045 14.8632,7.302 C14.9442,7.6065 14.9997,7.92 14.9997,8.25 C14.9997,10.317 13.3167,12 11.2497,12 C9.1827,12 7.4997,10.317 7.4997,8.25 C7.4997,6.183 9.1827,4.5 11.2497,4.5 C12.2247,4.5 13.1067,4.884 13.7757,5.496 C14.1237,4.29 14.8977,2.5365 16.5507,1.332 C14.9697,0.4845 13.1667,0 11.2497,0 C5.0457,0 -0.0003,5.046 -0.0003,11.25 C-0.0003,15.558 2.4357,19.3035 5.9997,21.192 L5.9997,27.375 C5.9997,27.546 6.0582,27.711 6.1632,27.8445 L7.2447,29.1945 L6.2187,30.219 C5.9262,30.513 5.9262,30.987 6.2187,31.281 L7.1892,32.25 L6.2187,33.219 C5.9262,33.513 5.9262,33.987 6.2187,34.281 L7.1892,35.25 L6.2187,36.219 C5.9907,36.4485 5.9352,36.7965 6.0792,37.086 L9.0792,43.086 C9.2067,43.3395 9.4662,43.5 9.7497,43.5 L12.7497,43.5 C13.0332,43.5 13.2927,43.3395 13.4202,43.086 L16.4202,37.086 C16.4727,36.981 16.4997,36.867 16.4997,36.75 L16.4997,21.192 C20.0637,19.3035 22.4997,15.558 22.4997,11.25 C22.4997,7.56 20.7057,4.2885 17.9532,2.2365 Z" id="Fill-5" fill="#788796" mask="url(#mask-2)"></path>
                        </g>
                    </g>
                </g>
            </g>
        </g>
    </g>
</svg>