<?xml version="1.0" encoding="UTF-8"?>
<svg width="179px" height="76px" viewBox="0 0 179 76" version="1.1" xmlns="http://www.w3.org/2000/svg" xmlns:xlink="http://www.w3.org/1999/xlink">
    <!-- Generator: Sketch 52.2 (67145) - http://www.bohemiancoding.com/sketch -->
    <title>Group</title>
    <desc>Created with Sketch.</desc>
    <g id="Symbols" stroke="none" stroke-width="1" fill="none" fill-rule="evenodd">
        <g id="logo-copy-2" transform="translate(1.000000, -1.000000)" fill="#FFFFFF">
            <g id="Group" transform="translate(-1.000000, 1.000000)">
                <g id="Group-12" transform="translate(0.000000, 1.000000)" fill-rule="nonzero">
                    <path d="M78.0117647,71.1223155 C77.9973395,72.1994729 78.3249111,73.2522846 78.945172,74.1222768 C76.8530522,73.6079978 76.0419534,72.2234002 76.0033296,70.7003429 C74.5172556,73.0402726 71.9491255,74.4191599 69.2248613,74.3398565 C65.426859,74.3398565 63.2510544,72.0849404 63.2510544,68.8212462 C63.2510544,65.557552 65.1049945,63.4213158 69.2699223,62.0367182 C72.9713651,60.6982739 75.8681465,59.7290556 75.8681465,57.5730394 L75.8681465,53.2741937 C75.8681465,51.784103 75.3789123,49.3182007 72.3469478,49.3182007 C71.4572787,49.3584382 70.5945677,49.6431102 69.8492786,50.1423659 C71.8834628,50.9203779 73.0228635,52.2324489 73.0228635,54.4873649 C73.0228635,56.7422809 71.2139845,58.5290711 68.4588235,58.5290711 C66.1285239,58.5290711 64.5964484,56.6961277 64.5964484,54.3225318 C64.5964484,52.3049754 65.845283,50.821478 67.5382908,49.9050063 C69.4823529,48.8962281 71.8255272,48.3555757 75.1278579,48.3555757 C78.4301887,48.3555757 81.0501665,48.8500749 82.8526082,50.7753248 C84.1722531,52.1599223 84.4039956,54.1840721 84.4039956,57.5202929 L84.4039956,66.8300631 C83.7981671,66.497435 83.1215666,66.3230526 82.4341842,66.3223773 C79.9207582,66.4013382 77.9431954,68.547715 78.0117647,71.1223155 Z M75.8874584,69.6585981 L75.8874584,59.511476 C75.3416052,60.2799061 74.7203874,60.9890878 74.0335183,61.6279323 C72.533936,63.0069842 71.6910523,64.9837083 71.7225305,67.0476427 C71.7225305,69.5662916 72.7589345,70.45639 74.1300777,70.45639 C74.8038971,70.4783154 75.4507706,70.1846565 75.8874584,69.6585981 Z M179,13.0219649 C177.950721,13.7604169 176.746948,15.8307199 176.676138,19.2724338 L176.676138,37.3974751 C176.746948,40.8655623 177.912098,42.9028987 179,43.6347574 L179,43.7204706 L163.90455,43.7204706 L163.90455,43.6347574 C164.99889,42.9028987 166.16404,40.858969 166.228413,37.3645085 L166.228413,29.5843889 L165.771365,29.5843889 C163.984136,29.6788442 162.309147,30.5057482 161.12364,31.8788649 C159.565816,33.6195018 158.74828,35.8810111 157.750499,38.788666 C156.41798,42.6325725 153.585572,43.9512368 148.397114,43.9512368 L147.69545,43.9512368 C146.710544,43.9314569 145.551831,43.8655237 144.348058,43.7270639 L143.382464,43.6611307 C141.986212,44.0104085 140.551538,44.172203 139.114539,44.1424432 C134.750055,44.1424432 133.185794,42.0193936 133.134295,39.6392045 C131.324268,42.526284 128.172418,44.2341787 124.823751,44.1424432 C120.169589,44.1424432 117.498113,41.3205015 117.498113,37.2853886 C117.498113,33.2502758 119.76404,30.6063538 124.862375,28.8920901 C129.400666,27.2371664 132.941176,26.0174019 132.941176,23.3800732 L132.941176,18.0658559 C132.941176,16.2395058 132.348946,13.1867979 128.634628,13.1867979 C127.542561,13.2361901 126.483837,13.5870208 125.570477,14.2021694 C128.042397,15.1647944 129.432852,16.7867515 129.432852,19.5757266 C129.432852,22.3647017 127.218424,24.5668711 123.845283,24.5668711 C120.954939,24.5668711 119.081687,22.3053618 119.081687,19.3713336 C119.081687,16.879058 120.613762,15.0461146 122.68657,13.9120633 C125.061931,12.6593322 127.926526,12 131.98202,12 C136.037514,12 139.236848,12.6065856 141.451276,14.9867747 C143.099223,16.7274116 143.382464,19.1999073 143.382464,23.3207333 L143.382464,31.8920515 L143.382464,39.5732713 C143.485461,40.5227096 143.74939,41.3732481 144.348058,41.5512678 C146.942286,42.335873 148.648169,38.2018603 148.918535,37.5425282 C149.826193,35.1095925 150.334739,33.5601619 150.894784,32.6700635 C151.660821,31.430519 153.077026,30.0591081 158.432852,29.4525225 C150.386238,28.7272571 147.888568,25.2130166 147.888568,21.2042771 C147.888568,16.0351129 152.027747,12.9296584 162.971143,12.9296584 L179,12.9296584 L179,13.0219649 Z M132.960488,38.3930667 L132.960488,25.8261956 C132.296179,26.7831358 131.536813,27.6669684 130.694562,28.4635242 C128.85289,30.1774624 127.82089,32.6206059 127.862153,35.1689324 C127.862153,38.2743869 129.136737,39.3820649 130.810433,39.3820649 C131.636696,39.4045914 132.428025,39.0405901 132.960488,38.3930667 Z M166.228413,28.3448444 L166.228413,16.3845589 C166.228413,14.5318355 165.829301,14.1823895 164.245727,14.1823895 C159.623751,14.1823895 158.574473,17.3999305 158.574473,21.1449372 C158.574473,26.3668479 160.589345,28.3448444 166.061043,28.3448444 L166.228413,28.3448444 Z M114.189345,36.4282568 C114.182908,36.5073767 114.182908,36.5996832 114.215094,36.6853964 L114.215094,37.087589 C114.215094,40.7666625 115.425305,42.8897121 116.551831,43.6479441 L116.551831,43.7336572 L101.520755,43.7336572 L101.520755,43.6479441 C102.544284,42.9424586 103.677248,41.043582 103.831743,37.826041 L103.831743,18.4548619 C103.831743,15.1384211 103.155827,14.1823895 101.186016,14.1823895 L100.677469,14.1823895 C99.4221976,14.1823895 98.8943396,14.5450222 98.6110988,15.3889673 C98.5123878,15.9915881 98.4436348,16.5989567 98.4051054,17.2087241 L98.3536071,17.7955298 C97.8257492,23.8547924 97.336515,29.8283418 96.0490566,34.7008065 C95.7431649,35.9729852 95.3582904,37.2238646 94.8967814,38.4458132 C93.8475028,41.0699553 92.5922309,42.8369655 91.0344062,43.7798105 C90.0551383,44.4668985 88.9158032,44.8763549 87.7320755,44.9666084 C87.6078139,44.9766419 87.4829741,44.9766419 87.3587125,44.9666084 L87.1591565,44.9666084 C84.9997915,44.9861483 83.0805852,43.5606635 82.4277469,41.4523679 C81.2737237,42.5216419 79.8948753,43.3044813 78.3980022,43.7402506 C76.3281803,44.3952627 74.1277439,44.4884125 72.0122087,44.0105767 C66.7658158,42.5007061 63,37.8656009 63,28.3580311 C63,16.9252113 69.5209767,12.0461533 77.9409545,12.0461533 C84.6872364,12.0461533 88.8843507,15.79116 88.8843507,25.3712564 L73.9176471,25.3712564 C73.8597114,26.0701485 73.8597114,26.7954138 73.8597114,27.5206792 C73.8597114,33.4546687 75.636404,36.2700171 77.7993341,37.4106617 C80.1167592,38.5183398 82.9169811,37.1205556 83.9791343,36.5073767 C84.1132857,36.4108989 84.2530159,36.3228269 84.3975583,36.2436438 C84.9603001,35.9442773 85.5851928,35.7882253 86.2193119,35.7887046 C87.2789392,35.7887032 88.2950733,36.2202921 89.0437389,36.9883411 C89.7924046,37.75639 90.2121419,38.7978477 90.2104329,39.8831574 C90.2110069,40.5555693 90.0472437,41.2174332 89.7340733,41.8084073 C90.6864434,41.0814956 91.4582938,40.1350837 91.9871254,39.0458055 C92.3022661,38.4596467 92.5817478,37.8541053 92.8239734,37.2326421 C94.645727,32.4854505 95.3023307,25.958062 95.8945616,19.2065006 L95.9524972,18.4416753 C95.9524972,18.2372823 95.9524972,17.9537695 95.9524972,17.861463 C95.9524972,17.7691565 95.9524972,17.6834433 95.9524972,17.5977301 C95.9555757,17.542831 95.9555757,17.4877962 95.9524972,17.4328971 C95.9524972,17.3933371 95.9524972,17.3471839 95.9524972,17.307624 C95.9286627,16.942301 95.8704572,16.5801871 95.7786903,16.2263192 C95.4566846,14.7723602 94.4933281,13.5542039 93.1715871,12.9296584 L116.519645,12.9296584 L116.519645,13.0219649 C115.476804,13.7604169 114.234406,15.8702798 114.189345,19.377927 L114.189345,36.4282568 Z M77.4967814,13.4241575 L77.4903441,13.4241575 C75.5012209,13.4241575 74.1558269,16.2263192 73.7245283,23.6569927 L80.4128746,23.6569927 C80.4128746,18.0988226 79.5760266,13.4241575 77.4967814,13.4241575 Z M144.502553,69.4278318 C145.777137,69.4278318 148.158935,69.144319 150.199556,66.1773242 L151.010655,66.480617 C149.806881,70.3574902 146.723418,74.6563359 141.103663,74.6563359 C135.013984,74.6563359 130.12808,71.2278086 130.12808,61.5224391 C130.12808,52.2917888 135.483907,48.3357958 142.358935,48.3357958 C147.895006,48.3357958 151.319645,51.3687237 151.319645,59.1158767 L139.08879,59.1158767 C139.043729,59.6829024 139.043729,60.269708 139.043729,60.8565136 C139.043729,67.6674149 141.927636,69.4278318 144.502553,69.4278318 Z M142.056382,49.4830337 C140.39556,49.4830337 139.301221,51.764323 138.979356,57.8169923 L144.444617,57.8169923 C144.444617,53.2939737 143.768701,49.4830337 142.056382,49.4830337 Z M179,49.2786408 C178.137403,49.878633 177.133185,51.6126766 177.120311,54.4939582 L177.120311,68.7619063 C177.133185,71.6827478 178.098779,73.3772315 179,73.9772238 L179,74.0497503 L166.698335,74.0497503 L166.698335,73.9772238 C167.56737,73.3574515 168.578024,71.6168146 168.578024,68.7025664 L168.578024,62.5971506 L168.211099,62.5971506 C166.754813,62.6723966 165.387906,63.3391947 164.413097,64.4498739 C163.138513,65.8608448 162.469034,67.6937882 161.657936,70.0410107 C160.570033,73.1662452 158.259046,74.2211767 154.023307,74.2211767 C152.91562,74.2208903 151.808818,74.1570549 150.708102,74.0299703 L150.708102,73.0211921 C152.980466,72.8497658 153.283019,72.0717538 153.926748,70.3838635 C155.01465,67.6212617 155.503885,65.9795246 156.057492,65.1092061 C156.681909,64.0872413 157.840622,62.9597832 162.211543,62.4718774 C155.639068,61.8850718 153.604883,59.0433502 153.604883,55.7994359 C153.604883,52.1269557 156.166926,49.7533599 162.771587,49.2061142 L179,49.2061142 L179,49.2786408 Z M168.578024,61.5554057 L168.584462,51.8830028 C168.584462,50.3797255 168.25616,50.0962127 166.968701,50.0962127 C163.190011,50.0962127 162.333851,52.7005747 162.333851,55.7335027 C162.333851,59.9598219 163.981798,61.5554057 168.449279,61.5554057 L168.578024,61.5554057 Z M100.426415,71.1618754 C100.412084,72.1682124 100.687472,73.1565813 101.218202,74.0035971 L95.0126526,74.0035971 L95.0126526,73.9310705 C95.8881243,73.3310782 96.8987791,71.583848 96.8987791,68.6564132 L96.8987791,62.3993509 L96.8987791,53.5708932 C96.9316195,52.8056311 96.84469,52.0399166 96.6412875,51.3027905 C96.5937025,51.1727649 96.5355635,51.0470519 96.4674806,50.9269712 L96.4159822,50.8478513 L96.3129856,50.7093916 C96.2862373,50.6754258 96.2560254,50.6444817 96.2228635,50.6170851 C96.1738495,50.5655638 96.1199384,50.5191808 96.0619312,50.4786253 L95.9267481,50.3863188 L95.8108768,50.3269789 L95.6113208,50.2544524 L95.4954495,50.2544524 L95.2315205,50.2082991 L95.1156493,50.2082991 L94.7680355,50.2082991 L94.336737,50.2082991 C93.2938957,50.2082991 92.881909,50.5313719 92.6501665,51.1907041 C92.5857936,51.5533367 92.5407325,52.0478359 92.4892342,52.6610148 L92.4441731,53.1489206 C92.2381798,55.5291097 92.0257492,57.8433656 91.7489456,60.0521284 C91.7231964,60.2301481 91.6781354,60.4015744 91.6781354,60.5730008 C91.6459489,60.8499203 91.6137625,61.1268398 91.5751387,61.397166 C91.3423837,63.1746462 91.0048826,64.936081 90.5644839,66.6718234 C90.3139583,67.7042433 90.0000526,68.7194357 89.6246393,69.7113446 C88.7877913,71.8343942 87.7706992,73.265145 86.4832408,74.0299703 C85.6826395,74.5895825 84.7524871,74.9238225 83.7860155,74.9991886 L83.4770255,74.9991886 L83.3096559,74.9991886 C81.1304088,75.0434032 79.3262092,73.2750486 79.2734739,71.0431956 L79.2734739,70.8783626 C79.2734739,69.0321773 80.7346853,67.5355485 82.5371809,67.5355485 C84.3396765,67.5355485 85.8008879,69.0321773 85.8008879,70.8783626 C85.8014221,71.4249048 85.6662991,71.9626157 85.4082131,72.4409798 C86.2137469,71.8572866 86.8732436,71.086921 87.3329634,70.1926571 C87.5771815,69.7144786 87.7921716,69.221228 87.9766926,68.7157531 C89.3285239,65.2410725 89.8950055,60.7246472 90.3520533,55.8521825 C90.4035516,55.3379034 90.4486127,54.817031 90.4936737,54.2895652 C90.5091447,53.9754833 90.5091447,53.6608022 90.4936737,53.3467202 C90.4904791,53.307228 90.4904791,53.2675327 90.4936737,53.2280404 C90.4673005,52.8921518 90.4134677,52.5591206 90.3327414,52.2324489 C90.0362173,50.8977467 89.1515143,49.7796784 87.9380688,49.2061142 L107.314317,49.2061142 L107.314317,49.2786408 C106.45172,49.878633 105.434628,51.6126766 105.434628,54.4939582 L105.434628,66.4344638 L105.293008,66.480617 C105.064174,66.4329756 104.831293,66.4086814 104.59778,66.4080905 C102.29323,66.4080905 100.426415,68.5245467 100.426415,71.1618754 Z M129.632408,49.2786408 C128.756937,49.8852264 127.752719,51.6324566 127.746282,54.5598914 L127.746282,68.6630065 C127.746282,71.6168146 128.718313,73.3310782 129.625971,73.9376638 L129.625971,74.0101904 L117.395117,74.0101904 L117.395117,73.9376638 C118.264151,73.3376716 119.274806,71.5904413 119.274806,68.6630065 L119.274806,53.6763863 C119.274806,50.9863111 118.721199,50.2148924 117.111876,50.2148924 L116.699889,50.2148924 C115.65061,50.2148924 115.238624,50.5379652 115.006881,51.1972974 C114.927153,51.6842305 114.871293,52.1749492 114.839512,52.6676081 L114.794451,53.1423273 C114.363152,58.0543519 113.944728,62.7158303 112.908324,66.6718234 C112.66075,67.7050942 112.346784,68.72048 111.968479,69.7113446 C111.131632,71.8343942 110.120977,73.265145 108.833518,74.0299703 C108.030647,74.5898338 107.098363,74.9240424 106.129856,74.9991886 L105.827303,74.9991886 L105.659933,74.9991886 C103.482071,75.0397714 101.679968,73.2734724 101.623751,71.0431956 C101.623751,71.010229 101.623751,70.9706691 101.623751,70.9442958 C101.623751,70.9179225 101.623751,70.8783626 101.623751,70.8783626 C101.622555,70.1975646 101.829668,69.5334954 102.215982,68.9794859 C103.034324,67.7920298 104.507001,67.2806816 105.861668,67.713618 C107.216334,68.1465545 108.143778,69.4249552 108.157603,70.8783626 C108.156167,71.4254825 108.01882,71.9632292 107.758491,72.4409798 C108.53434,71.8517961 109.166649,71.0868205 109.605993,70.2058438 C109.86345,69.7286817 110.091351,69.2354066 110.288346,68.7289397 C111.781798,64.8850332 112.316093,59.7620222 112.79889,54.2895652 C112.814361,53.9754833 112.814361,53.6608022 112.79889,53.3467202 C112.79889,53.3071603 112.79889,53.2676004 112.79889,53.2280404 C112.775668,52.8917634 112.72179,52.558448 112.637958,52.2324489 C112.341434,50.8977467 111.456731,49.7796784 110.243285,49.2061142 L129.632408,49.2061142 L129.632408,49.2786408 Z M62.0642975,31.0044053 C64.7691566,39.2032351 61.463935,48.2975219 54.0336418,53.6639133 C48.9596101,57.3219504 43.2012942,59.125566 37.0233702,59.7606419 C31.4199866,60.3703147 25.9909018,59.8749555 20.7748489,57.5823315 C13.5704986,54.4196536 9.29695026,47.6814983 9.94250137,40.3273194 C10.4847643,34.1035756 15.281209,28.6038184 21.9691184,26.6985907 C22.9439006,26.400105 23.1052884,26.0000072 23.1052884,25.1299532 C23.1052884,24.6854001 23.1052884,24.240847 23.1052884,23.7962938 L23.1052884,7.63996303 C22.6856802,4.24230699 20.9233256,2.61016193 16.9144533,1.80361555 C14.2821105,1.20209533 11.5274656,1.38334783 8.99999675,2.32437778 C5.94008452,3.52467123 4.28101818,5.94431039 3.79039935,9.00537621 C3.29978051,12.066442 3.87432099,14.8988805 6.13374985,17.2486613 C7.49529214,18.7598386 9.52557217,19.5150736 11.5628346,19.2682027 C13.0566927,19.1565204 14.3229049,18.1437841 14.7389461,16.7278991 C15.0773718,15.5491361 14.5414134,14.2968901 13.4478439,13.7112886 C12.4924282,13.2667355 11.5111905,13.6731841 10.7107072,14.8480745 C10.633241,14.9623881 10.5493194,15.070351 10.4783088,15.1719632 C8.56747751,14.6003949 7.57978433,12.593555 8.05103663,10.3580879 C8.83860898,6.58573705 12.5698944,5.47435423 15.4684188,5.95066115 C18.3528431,6.45015304 20.4988479,8.85162258 20.6328276,11.7298518 C20.9814252,16.3023983 18.0958118,19.9096294 13.1444348,20.7479295 C8.7353208,21.4846176 4.93948031,20.182712 2.11842199,16.7024961 C-1.69032953,12.015636 -0.199106477,5.33463753 5.27516688,2.11480274 C7.69909875,0.725384165 10.4619923,0.011838326 13.2670896,0.0508060717 C15.0294441,0.0381045538 29.0056255,0.0952613845 31.7427621,0.12066442 L44.802261,0.12066442 L44.9120047,0.12066442 C48.0687496,0.12066442 52.3616644,0.12066442 55.8153628,0 L55.8153628,13.7112886 L55.5184093,13.7112886 C53.4849233,4.19785168 49.0177097,1.27015179 44.7958055,1.44797304 L38.3402944,1.44797304 C35.3255708,1.44797304 34.7833078,1.92427997 34.7833078,5.05520414 L34.7187527,18.1758722 L36.6231285,18.1758722 C37.223491,18.1758722 37.804487,18.1758722 38.3790275,18.1758722 L38.7728137,18.1758722 C39.3279876,18.1885737 39.8767061,18.233029 40.406058,18.233029 L40.5997233,18.233029 C41.0838866,18.258432 41.5551389,18.2901858 42.0199357,18.3282904 L42.3491668,18.3282904 C42.8462411,18.3663949 43.3304045,18.4108502 43.8081123,18.4680071 L44.0534217,18.4680071 L45.2993353,18.626776 L45.5317337,18.626776 C45.964253,18.6966344 46.4032277,18.7664927 46.8228359,18.8427018 L47.0681454,18.8871572 C47.4619315,18.9570155 47.8492622,19.0332246 48.2236818,19.1157845 L48.339881,19.1157845 C48.7401227,19.2046951 49.1274534,19.2936057 49.5083285,19.3952179 L49.7278159,19.4523747 C50.4831107,19.630196 51.2125834,19.8461218 51.8581345,20.0874506 L52.0324333,20.1509582 C52.3487534,20.2716226 52.68444,20.392287 52.9943045,20.525653 C53.304169,20.6526682 53.594667,20.7860341 53.8787095,20.9194 L54.0013642,20.9765569 C54.2854067,21.1162736 54.5629937,21.2559903 54.8276696,21.4020577 L54.8857692,21.4401623 C55.1375342,21.579879 55.3892991,21.7259464 55.6216975,21.8720139 L55.6862526,21.9164692 C55.931562,22.0688874 56.1639604,22.2276564 56.3899033,22.3927761 L56.4544584,22.4372314 C56.6804013,22.6023512 56.8934332,22.7674709 57.1000095,22.9389414 C58.0089274,23.682169 58.7837251,24.5710739 59.3917159,25.5681556 C60.5480221,27.2419087 61.4484702,29.073494 62.0642975,31.0044053 Z M12.8345703,6.81436437 C13.8103897,6.98112683 14.7649359,7.25155822 15.6814507,7.62091076 C17.4338912,8.31133118 18.7297678,9.80458971 19.1480601,11.6155381 C19.3613089,12.5343658 19.4695719,13.4737506 19.4708357,14.4162229 C19.7676242,13.4781834 19.8535303,12.4878743 19.7226006,11.513926 C19.6886912,11.2655709 19.6391031,11.0195326 19.5741238,10.777238 C19.5095687,10.5359091 19.4514691,10.2882295 19.3352699,10.0596022 C19.2190707,9.83097488 19.109327,9.60234756 18.9737613,9.38007099 C18.8344553,9.15927282 18.6813818,8.94717481 18.51542,8.74499509 C17.8225691,7.95398547 16.9125783,7.37627893 15.8944825,7.08109625 C14.9043155,6.78457116 13.8623096,6.69373973 12.8345703,6.81436437 Z M14.0482064,8.25598665 C15.130759,8.40302421 16.1196239,8.93920577 16.8240761,9.76111653 C17.5332278,10.5887165 17.9818818,11.6016692 18.1151783,12.6761149 C18.258858,11.5277313 17.8997982,10.3733735 17.1274852,9.50073541 C16.7460944,9.06494747 16.2693885,8.71973306 15.7330948,8.49096474 C15.2019394,8.26930841 14.6210567,8.18829728 14.0482064,8.25598665 Z M50.4056446,39.3175488 C50.7606977,34.4592181 50.0893245,29.8485671 47.7717961,25.5872079 L47.7653405,25.5872079 C47.5071201,25.1109009 47.2295331,24.634594 46.9261241,24.1646379 C45.4671786,21.9101184 41.6584271,19.5285838 37.7851205,19.2491504 C37.3332347,19.2555012 36.4036411,19.1856428 36.4036411,19.1856428 L35.8807447,19.1856428 L34.7381193,19.1856428 L34.6993862,24.9013259 C34.6993862,26.031761 34.6993862,27.1621961 34.6993862,28.2926312 C34.7897464,28.6836838 35.0185728,29.0303582 35.3449373,29.2706481 C39.2789273,32.5847455 40.5084351,38.0601269 38.359661,42.6961525 C35.7129014,48.6341122 28.4504515,50.507586 23.7379285,46.4685033 C19.8710773,43.185161 20.9168701,36.4406549 25.526105,34.6878455 C27.7532563,33.8241422 30.3741938,34.2750461 31.6265629,35.7293699 C32.2011034,36.4279534 32.6142561,36.9487157 31.5039082,37.6981052 C29.7867423,38.8412418 30.1353399,40.943343 32.0719932,41.6927326 C33.2324823,42.2165394 34.6039044,41.9446538 35.467592,41.0195522 C36.7586942,39.7176466 36.9910926,38.1109045 36.7586942,36.3898489 C35.6806239,28.3815418 25.7133148,25.9301489 20.3423297,29.7406042 C16.3140908,32.6047965 14.6292024,36.6565807 14.5323697,41.3878962 C14.4032595,47.8910734 16.9596419,53.0351881 23.0213667,56.0772017 C27.2239044,58.1920044 31.7556732,58.5603484 36.3907301,57.8808172 C41.7488043,57.0996739 45.7512211,54.4450566 48.0687496,49.5422707 C49.5987057,46.3033836 50.1474241,42.8485707 50.4056446,39.3175488 Z M24.9515645,44.3981559 L24.9515645,44.3727529 C24.3891056,43.6235324 23.9451064,42.7949076 23.6346403,41.9150092 C23.2945577,41.010365 23.0711745,40.067324 22.9697226,39.1079737 C22.9662291,39.1290034 22.9662291,39.1504516 22.9697226,39.1714813 C22.9697226,38.7523312 22.9697226,38.3268304 22.9697226,37.9013295 C22.6435352,39.0492305 22.5513894,40.2492712 22.6985912,41.4323515 C22.7410902,41.731475 22.7992673,42.0282392 22.87289,42.3214577 C22.9503561,42.6135927 23.0213667,42.9184291 23.150477,43.1915117 C23.2795872,43.4645944 23.4086974,43.7503785 23.5636297,44.0171104 C23.7237127,44.2803056 23.8982708,44.5347139 24.0865261,44.7792015 C24.8776718,45.7329123 25.9274849,46.4463879 27.1141607,46.8368474 C28.274697,47.20989 29.5008673,47.3439204 30.7163359,47.2305944 C29.5608795,47.0548036 28.4314678,46.7413113 27.3530146,46.2970329 C26.9921548,46.1290833 26.6428155,45.9381552 26.3072219,45.7254645 C25.7976326,45.3439831 25.3417663,44.8976496 24.9515645,44.3981559 Z M24.5319563,39.1079737 C24.3625849,40.6421905 24.7841164,42.1831202 25.7133148,43.4264898 C26.1524897,44.0106543 26.725258,44.4849299 27.3852922,44.8109553 C28.0055215,45.1170763 28.7058282,45.2300541 29.3929561,45.134844 C28.0485696,44.915933 26.8466134,44.1831778 26.0490014,43.0962503 C25.1926148,41.9227693 24.6690232,40.5462591 24.5319563,39.1079737 Z" id="logo"></path>
                </g>
                <path d="M66.378,8.334 L66.945,8.334 L67.917,6.453 C68.0190005,6.24899898 68.1194995,6.10500042 68.2185,6.021 C68.3175005,5.93699958 68.4359993,5.87700018 68.574,5.841 L68.574,5.796 C68.4539994,5.75999982 68.3445005,5.69850043 68.2455,5.6115 C68.1464995,5.52449956 68.0550004,5.3910009 67.971,5.211 L67.125,3.384 L66.558,3.384 L66.558,2.718 L67.026,2.718 C67.218001,2.718 67.3874993,2.76599952 67.5345,2.862 C67.6815007,2.95800048 67.8119994,3.1259988 67.926,3.366 L68.916,5.499 L70.023,5.499 L70.023,2.718 L70.779,2.718 L70.779,5.499 L71.886,5.499 L72.894,3.366 C73.0080006,3.1259988 73.1354993,2.95800048 73.2765,2.862 C73.4175007,2.76599952 73.583999,2.718 73.776,2.718 L74.244,2.718 L74.244,3.384 L73.677,3.384 L72.813,5.211 C72.7289996,5.3910009 72.6405005,5.52449956 72.5475,5.6115 C72.4544995,5.69850043 72.3480006,5.75999982 72.228,5.796 L72.228,5.841 C72.3660007,5.87700018 72.4874995,5.93699958 72.5925,6.021 C72.6975005,6.10500042 72.8009995,6.24899898 72.903,6.453 L73.857,8.334 L74.424,8.334 L74.424,9 L73.848,9 C73.6739991,9 73.5210007,8.95350046 73.389,8.8605 C73.2569993,8.76749953 73.1280006,8.59500126 73.002,8.343 L71.886,6.147 L70.779,6.147 L70.779,9 L70.023,9 L70.023,6.147 L68.916,6.147 L67.782,8.343 C67.6499993,8.59500126 67.5225006,8.76749953 67.3995,8.8605 C67.2764994,8.95350046 67.1280009,9 66.954,9 L66.378,9 L66.378,8.334 Z M77.8190001,2.718 L78.5570001,2.718 L78.5570001,6.66 L78.4850001,7.947 L78.5120001,7.947 L79.1420001,6.813 L81.8240001,2.718 L82.5080001,2.718 L82.5080001,9 L81.7700001,9 L81.7700001,5.058 L81.8420001,3.771 L81.8150001,3.771 L81.1850001,4.905 L78.5030001,9 L77.8190001,9 L77.8190001,2.718 Z M85.6150001,8.334 L86.2630001,8.334 C86.4010008,8.20199934 86.5209996,8.04150094 86.6230001,7.8525 C86.7250006,7.66349905 86.8089998,7.42200147 86.8750001,7.128 C86.9410005,6.83399853 86.989,6.47100216 87.0190001,6.039 C87.0490003,5.60699784 87.0640001,5.07900312 87.0640001,4.455 L87.0640001,2.718 L90.8440001,2.718 L90.8440001,9 L90.0880001,9 L90.0880001,3.384 L87.7840001,3.384 L87.7840001,4.509 C87.7840001,5.15700324 87.7645003,5.7104977 87.7255001,6.1695 C87.6864999,6.62850229 87.6310005,7.01849839 87.5590001,7.3395 C87.4869998,7.6605016 87.3970007,7.92149899 87.2890001,8.1225 C87.1809996,8.32350101 87.0580008,8.49299931 86.9200001,8.631 C86.7939995,8.75700063 86.6530009,8.8499997 86.4970001,8.91 C86.3409994,8.9700003 86.1550012,9 85.9390001,9 L85.6150001,9 L85.6150001,8.334 Z M97.0470002,9.108 C96.6389982,9.108 96.2715018,9.0375007 95.9445002,8.8965 C95.6174986,8.75549929 95.3385014,8.54850136 95.1075002,8.2755 C94.876499,8.00249863 94.6980008,7.66350202 94.5720002,7.2585 C94.4459996,6.85349797 94.3830002,6.38700264 94.3830002,5.859 C94.3830002,5.33099736 94.4459996,4.86600201 94.5720002,4.464 C94.6980008,4.06199799 94.876499,3.72300138 95.1075002,3.447 C95.3385014,3.17099862 95.6174986,2.9625007 95.9445002,2.8215 C96.2715018,2.68049929 96.6389982,2.61 97.0470002,2.61 C97.4490022,2.61 97.8149986,2.68049929 98.1450002,2.8215 C98.4750019,2.9625007 98.755499,3.17099862 98.9865002,3.447 C99.2175014,3.72300138 99.3959996,4.06199799 99.5220002,4.464 C99.6480008,4.86600201 99.7110002,5.33099736 99.7110002,5.859 C99.7110002,6.38700264 99.6480008,6.85349797 99.5220002,7.2585 C99.3959996,7.66350202 99.2175014,8.00249863 98.9865002,8.2755 C98.755499,8.54850136 98.4750019,8.75549929 98.1450002,8.8965 C97.8149986,9.0375007 97.4490022,9.108 97.0470002,9.108 Z M97.0470002,8.433 C97.3170016,8.433 97.5659991,8.38500048 97.7940002,8.289 C98.0220013,8.19299952 98.2184994,8.0550009 98.3835002,7.875 C98.548501,7.6949991 98.6759998,7.47900126 98.7660002,7.227 C98.8560007,6.97499874 98.9010002,6.69300156 98.9010002,6.381 L98.9010002,5.337 C98.9010002,5.02499844 98.8560007,4.74300126 98.7660002,4.491 C98.6759998,4.23899874 98.548501,4.0230009 98.3835002,3.843 C98.2184994,3.6629991 98.0220013,3.52500048 97.7940002,3.429 C97.5659991,3.33299952 97.3170016,3.285 97.0470002,3.285 C96.7769989,3.285 96.5280013,3.33299952 96.3000002,3.429 C96.0719991,3.52500048 95.875501,3.6629991 95.7105002,3.843 C95.5454994,4.0230009 95.4180007,4.23899874 95.3280002,4.491 C95.2379998,4.74300126 95.1930002,5.02499844 95.1930002,5.337 L95.1930002,6.381 C95.1930002,6.69300156 95.2379998,6.97499874 95.3280002,7.227 C95.4180007,7.47900126 95.5454994,7.6949991 95.7105002,7.875 C95.875501,8.0550009 96.0719991,8.19299952 96.3000002,8.289 C96.5280013,8.38500048 96.7769989,8.433 97.0470002,8.433 Z M103.25,2.718 L103.988,2.718 L103.988,6.66 L103.916,7.947 L103.943,7.947 L104.573,6.813 L107.255,2.718 L107.939,2.718 L107.939,9 L107.201,9 L107.201,5.058 L107.273,3.771 L107.246,3.771 L106.616,4.905 L103.934,9 L103.25,9 L103.25,2.718 Z M105.572,2.106 C105.247999,2.106 104.990001,2.04150064 104.798,1.9125 C104.605999,1.78349935 104.453001,1.61400105 104.339,1.404 L104.159,1.062 L104.789,0.783 L105.104,1.521 C105.176001,1.53900009 105.254,1.55249995 105.338,1.5615 C105.422001,1.57050004 105.5,1.575 105.572,1.575 C105.644001,1.575 105.722,1.57050004 105.806,1.5615 C105.890001,1.55249995 105.968,1.53900009 106.04,1.521 L106.355,0.783 L106.985,1.062 L106.805,1.404 C106.691,1.61400105 106.538001,1.78349935 106.346,1.9125 C106.153999,2.04150064 105.896002,2.106 105.572,2.106 Z M116.097,2.718 L116.853,2.718 L116.853,5.499 L118.077,5.499 L119.337,3.348 C119.475001,3.11999886 119.61,2.95800048 119.742,2.862 C119.874001,2.76599952 120.035999,2.718 120.228,2.718 L120.642,2.718 L120.642,3.384 L120.075,3.384 L118.959,5.292 C118.851,5.4720009 118.762501,5.5919997 118.6935,5.652 C118.6245,5.7120003 118.536001,5.75999982 118.428,5.796 L118.428,5.841 C118.566001,5.87100015 118.686,5.92199964 118.788,5.994 C118.890001,6.06600036 119.001,6.20699895 119.121,6.417 L120.291,8.334 L120.84,8.334 L120.84,9 L120.282,9 C120.138,9 120.000001,8.95950041 119.868,8.8785 C119.736,8.79749959 119.601001,8.64300114 119.463,8.415 L118.077,6.147 L116.853,6.147 L116.853,9 L116.097,9 L116.097,2.718 Z M126.35,9.108 C125.941998,9.108 125.574502,9.0375007 125.2475,8.8965 C124.920499,8.75549929 124.641502,8.54850136 124.4105,8.2755 C124.179499,8.00249863 124.001001,7.66350202 123.875,7.2585 C123.749,6.85349797 123.686,6.38700264 123.686,5.859 C123.686,5.33099736 123.749,4.86600201 123.875,4.464 C124.001001,4.06199799 124.179499,3.72300138 124.4105,3.447 C124.641502,3.17099862 124.920499,2.9625007 125.2475,2.8215 C125.574502,2.68049929 125.941998,2.61 126.35,2.61 C126.752002,2.61 127.117999,2.68049929 127.448,2.8215 C127.778002,2.9625007 128.058499,3.17099862 128.2895,3.447 C128.520502,3.72300138 128.699,4.06199799 128.825,4.464 C128.951001,4.86600201 129.014,5.33099736 129.014,5.859 C129.014,6.38700264 128.951001,6.85349797 128.825,7.2585 C128.699,7.66350202 128.520502,8.00249863 128.2895,8.2755 C128.058499,8.54850136 127.778002,8.75549929 127.448,8.8965 C127.117999,9.0375007 126.752002,9.108 126.35,9.108 Z M126.35,8.433 C126.620002,8.433 126.868999,8.38500048 127.097,8.289 C127.325002,8.19299952 127.5215,8.0550009 127.6865,7.875 C127.851501,7.6949991 127.979,7.47900126 128.069,7.227 C128.159001,6.97499874 128.204,6.69300156 128.204,6.381 L128.204,5.337 C128.204,5.02499844 128.159001,4.74300126 128.069,4.491 C127.979,4.23899874 127.851501,4.0230009 127.6865,3.843 C127.5215,3.6629991 127.325002,3.52500048 127.097,3.429 C126.868999,3.33299952 126.620002,3.285 126.35,3.285 C126.079999,3.285 125.831002,3.33299952 125.603,3.429 C125.374999,3.52500048 125.178501,3.6629991 125.0135,3.843 C124.8485,4.0230009 124.721001,4.23899874 124.631,4.491 C124.541,4.74300126 124.496,5.02499844 124.496,5.337 L124.496,6.381 C124.496,6.69300156 124.541,6.97499874 124.631,7.227 C124.721001,7.47900126 124.8485,7.6949991 125.0135,7.875 C125.178501,8.0550009 125.374999,8.19299952 125.603,8.289 C125.831002,8.38500048 126.079999,8.433 126.35,8.433 Z M137.449001,3.708 L137.404001,3.708 L136.873001,4.761 L135.370001,7.497 L133.867001,4.761 L133.336001,3.708 L133.291001,3.708 L133.291001,9 L132.553001,9 L132.553001,2.718 L133.561001,2.718 L135.361001,6.102 L135.406001,6.102 L137.215001,2.718 L138.187001,2.718 L138.187001,9 L137.449001,9 L137.449001,3.708 Z M142.041001,2.718 L146.604001,2.718 L146.604001,9 L145.848001,9 L145.848001,3.384 L142.797001,3.384 L142.797001,9 L142.041001,9 L142.041001,2.718 Z M149.711001,8.334 L150.359001,8.334 C150.497001,8.20199934 150.617,8.04150094 150.719001,7.8525 C150.821001,7.66349905 150.905,7.42200147 150.971001,7.128 C151.037001,6.83399853 151.085001,6.47100216 151.115001,6.039 C151.145001,5.60699784 151.160001,5.07900312 151.160001,4.455 L151.160001,2.718 L154.940001,2.718 L154.940001,9 L154.184001,9 L154.184001,3.384 L151.880001,3.384 L151.880001,4.509 C151.880001,5.15700324 151.860501,5.7104977 151.821501,6.1695 C151.7825,6.62850229 151.727001,7.01849839 151.655001,7.3395 C151.583,7.6605016 151.493001,7.92149899 151.385001,8.1225 C151.277,8.32350101 151.154001,8.49299931 151.016001,8.631 C150.89,8.75700063 150.749001,8.8499997 150.593001,8.91 C150.437,8.9700003 150.251002,9 150.035001,9 L149.711001,9 L149.711001,8.334 Z M158.794001,9 L158.794001,2.718 L162.628001,2.718 L162.628001,3.384 L159.550001,3.384 L159.550001,5.49 L162.448001,5.49 L162.448001,6.156 L159.550001,6.156 L159.550001,8.334 L162.628001,8.334 L162.628001,9 L158.794001,9 Z M166.221001,2.718 L166.977001,2.718 L166.977001,5.499 L168.201001,5.499 L169.461001,3.348 C169.599001,3.11999886 169.734,2.95800048 169.866001,2.862 C169.998001,2.76599952 170.16,2.718 170.352001,2.718 L170.766001,2.718 L170.766001,3.384 L170.199001,3.384 L169.083001,5.292 C168.975,5.4720009 168.886501,5.5919997 168.817501,5.652 C168.7485,5.7120003 168.660001,5.75999982 168.552001,5.796 L168.552001,5.841 C168.690001,5.87100015 168.81,5.92199964 168.912001,5.994 C169.014001,6.06600036 169.125,6.20699895 169.245001,6.417 L170.415001,8.334 L170.964001,8.334 L170.964001,9 L170.406001,9 C170.262,9 170.124001,8.95950041 169.992001,8.8785 C169.86,8.79749959 169.725001,8.64300114 169.587001,8.415 L168.201001,6.147 L166.977001,6.147 L166.977001,9 L166.221001,9 L166.221001,2.718 Z M176.573001,9.108 C175.774997,9.108 175.154003,8.83650271 174.710001,8.2935 C174.265999,7.75049728 174.044001,6.95100528 174.044001,5.895 C174.044001,4.83899472 174.265999,4.02750283 174.710001,3.4605 C175.154003,2.89349716 175.774997,2.61 176.573001,2.61 C177.101004,2.61 177.543499,2.7299988 177.900501,2.97 C178.257503,3.2100012 178.535,3.54899781 178.733001,3.987 L178.121001,4.356 C177.995,4.03199838 177.803002,3.77250097 177.545001,3.5775 C177.287,3.38249902 176.963003,3.285 176.573001,3.285 C176.303,3.285 176.061502,3.33599949 175.848501,3.438 C175.6355,3.54000051 175.455502,3.68549905 175.308501,3.8745 C175.1615,4.06350094 175.049001,4.28849869 174.971001,4.5495 C174.893,4.8105013 174.854001,5.10299838 174.854001,5.427 L174.854001,6.363 C174.854001,7.01100324 175.003999,7.51799817 175.304001,7.884 C175.604002,8.25000183 176.026998,8.433 176.573001,8.433 C176.975003,8.433 177.311,8.32950103 177.581001,8.1225 C177.851002,7.91549897 178.049,7.64100171 178.175001,7.299 L178.778001,7.677 C178.58,8.12100222 178.295003,8.47049872 177.923001,8.7255 C177.550999,8.98050127 177.101004,9.108 176.573001,9.108 Z" id="жилой-комплекс"></path>
            </g>
        </g>
    </g>
</svg>